<mxfile host="app.diagrams.net" agent="Mozilla/5.0 (Windows NT 10.0; Win64; x64) AppleWebKit/537.36 (KHTML, like Gecko) Chrome/117.0.0.0 Safari/537.36" version="25.0.3" pages="3">
  <diagram name="PGC线路团队协作图" id="74e2e168-ea6b-b213-b513-2b3c1d86103e">
    <mxGraphModel dx="780" dy="416" grid="1" gridSize="10" guides="1" tooltips="1" connect="1" arrows="1" fold="1" page="1" pageScale="1" pageWidth="1100" pageHeight="850" background="none" math="0" shadow="0">
      <root>
        <mxCell id="0" />
        <mxCell id="1" parent="0" />
        <mxCell id="77e6c97f196da883-1" value="线路团队协作交互" style="swimlane;html=1;childLayout=stackLayout;startSize=20;rounded=0;shadow=0;labelBackgroundColor=none;strokeWidth=1;fontFamily=Verdana;fontSize=8;align=center;" parent="1" vertex="1">
          <mxGeometry x="70" y="40" width="960" height="750" as="geometry" />
        </mxCell>
        <mxCell id="77e6c97f196da883-2" value="后台" style="swimlane;html=1;startSize=20;fillColor=#f8cecc;strokeColor=#b85450;" parent="77e6c97f196da883-1" vertex="1">
          <mxGeometry y="20" width="160" height="730" as="geometry" />
        </mxCell>
        <mxCell id="77e6c97f196da883-8" value="自创路线" style="rounded=1;whiteSpace=wrap;html=1;shadow=0;labelBackgroundColor=none;strokeWidth=1;fontFamily=Verdana;fontSize=8;align=center;" parent="77e6c97f196da883-2" vertex="1">
          <mxGeometry x="10" y="130" width="100" height="60" as="geometry" />
        </mxCell>
        <mxCell id="77e6c97f196da883-9" value="路线review" style="rounded=1;whiteSpace=wrap;html=1;shadow=0;labelBackgroundColor=none;strokeWidth=1;fontFamily=Verdana;fontSize=8;align=center;" parent="77e6c97f196da883-2" vertex="1">
          <mxGeometry x="10" y="350" width="100" height="60" as="geometry" />
        </mxCell>
        <mxCell id="mpfO-ckbmW8xnLMsvUuP-3" value="查看路线" style="rounded=1;whiteSpace=wrap;html=1;shadow=0;labelBackgroundColor=none;strokeWidth=1;fontFamily=Verdana;fontSize=8;align=center;" parent="77e6c97f196da883-2" vertex="1">
          <mxGeometry x="20" y="570" width="100" height="60" as="geometry" />
        </mxCell>
        <mxCell id="77e6c97f196da883-3" value="算法" style="swimlane;html=1;startSize=20;" parent="77e6c97f196da883-1" vertex="1">
          <mxGeometry x="160" y="20" width="160" height="730" as="geometry" />
        </mxCell>
        <mxCell id="xqhfm99gbNMzv0-Y3LiP-1" value="挖掘路线（爬虫、ugc）" style="rounded=1;whiteSpace=wrap;html=1;shadow=0;labelBackgroundColor=none;strokeWidth=1;fontFamily=Verdana;fontSize=8;align=center;" parent="77e6c97f196da883-3" vertex="1">
          <mxGeometry x="20" y="80" width="100" height="60" as="geometry" />
        </mxCell>
        <mxCell id="xqhfm99gbNMzv0-Y3LiP-5" value="线路标题" style="rounded=1;whiteSpace=wrap;html=1;shadow=0;labelBackgroundColor=none;strokeWidth=1;fontFamily=Verdana;fontSize=8;align=center;" parent="77e6c97f196da883-3" vertex="1">
          <mxGeometry x="10" y="170" width="100" height="60" as="geometry" />
        </mxCell>
        <mxCell id="xqhfm99gbNMzv0-Y3LiP-16" value="线路打分" style="rounded=1;whiteSpace=wrap;html=1;shadow=0;labelBackgroundColor=none;strokeWidth=1;fontFamily=Verdana;fontSize=8;align=center;" parent="77e6c97f196da883-3" vertex="1">
          <mxGeometry x="10" y="250" width="100" height="60" as="geometry" />
        </mxCell>
        <mxCell id="xqhfm99gbNMzv0-Y3LiP-6" value="线路图片" style="rounded=1;whiteSpace=wrap;html=1;shadow=0;labelBackgroundColor=none;strokeWidth=1;fontFamily=Verdana;fontSize=8;align=center;" parent="77e6c97f196da883-3" vertex="1">
          <mxGeometry x="30" y="20" width="100" height="60" as="geometry" />
        </mxCell>
        <mxCell id="77e6c97f196da883-4" value="线路中台" style="swimlane;html=1;startSize=20;" parent="77e6c97f196da883-1" vertex="1">
          <mxGeometry x="320" y="20" width="160" height="730" as="geometry" />
        </mxCell>
        <mxCell id="77e6c97f196da883-12" value="路线汇总" style="rounded=1;whiteSpace=wrap;html=1;shadow=0;labelBackgroundColor=none;strokeWidth=1;fontFamily=Verdana;fontSize=8;align=center;" parent="77e6c97f196da883-4" vertex="1">
          <mxGeometry x="40" y="120" width="100" height="60" as="geometry" />
        </mxCell>
        <mxCell id="77e6c97f196da883-11" value="mapping上线" style="rounded=1;whiteSpace=wrap;html=1;shadow=0;labelBackgroundColor=none;strokeWidth=1;fontFamily=Verdana;fontSize=8;align=center;fillColor=#f8cecc;strokeColor=#b85450;" parent="77e6c97f196da883-4" vertex="1">
          <mxGeometry x="30" y="260" width="100" height="60" as="geometry" />
        </mxCell>
        <mxCell id="xqhfm99gbNMzv0-Y3LiP-15" value="线路详情" style="rounded=1;whiteSpace=wrap;html=1;shadow=0;labelBackgroundColor=none;strokeWidth=1;fontFamily=Verdana;fontSize=8;align=center;" parent="77e6c97f196da883-4" vertex="1">
          <mxGeometry x="40" y="440" width="100" height="60" as="geometry" />
        </mxCell>
        <mxCell id="mpfO-ckbmW8xnLMsvUuP-2" value="回收数据" style="rounded=1;whiteSpace=wrap;html=1;shadow=0;labelBackgroundColor=none;strokeWidth=1;fontFamily=Verdana;fontSize=8;align=center;" parent="77e6c97f196da883-4" vertex="1">
          <mxGeometry x="30" y="650" width="100" height="60" as="geometry" />
        </mxCell>
        <mxCell id="mpfO-ckbmW8xnLMsvUuP-7" value="线路列表" style="rounded=1;whiteSpace=wrap;html=1;shadow=0;labelBackgroundColor=none;strokeWidth=1;fontFamily=Verdana;fontSize=8;align=center;" parent="77e6c97f196da883-4" vertex="1">
          <mxGeometry x="40" y="370" width="100" height="60" as="geometry" />
        </mxCell>
        <mxCell id="uz-vjrTtzpiiIkHIg5wc-7" value="推荐住宿区" style="rounded=1;whiteSpace=wrap;html=1;shadow=0;labelBackgroundColor=none;strokeWidth=1;fontFamily=Verdana;fontSize=8;align=center;" parent="77e6c97f196da883-4" vertex="1">
          <mxGeometry x="40" y="510" width="100" height="60" as="geometry" />
        </mxCell>
        <mxCell id="uz-vjrTtzpiiIkHIg5wc-8" value="智能优化" style="rounded=1;whiteSpace=wrap;html=1;shadow=0;labelBackgroundColor=none;strokeWidth=1;fontFamily=Verdana;fontSize=8;align=center;" parent="77e6c97f196da883-4" vertex="1">
          <mxGeometry x="40" y="580" width="100" height="60" as="geometry" />
        </mxCell>
        <mxCell id="77e6c97f196da883-5" value="搜索" style="swimlane;html=1;startSize=20;" parent="77e6c97f196da883-1" vertex="1">
          <mxGeometry x="480" y="20" width="160" height="730" as="geometry" />
        </mxCell>
        <mxCell id="xqhfm99gbNMzv0-Y3LiP-13" style="edgeStyle=orthogonalEdgeStyle;rounded=0;orthogonalLoop=1;jettySize=auto;html=1;exitX=0.5;exitY=1;exitDx=0;exitDy=0;entryX=0.5;entryY=0;entryDx=0;entryDy=0;" parent="77e6c97f196da883-5" source="77e6c97f196da883-15" target="xqhfm99gbNMzv0-Y3LiP-12" edge="1">
          <mxGeometry relative="1" as="geometry" />
        </mxCell>
        <mxCell id="77e6c97f196da883-15" value="线路召回" style="rounded=1;whiteSpace=wrap;html=1;shadow=0;labelBackgroundColor=none;strokeWidth=1;fontFamily=Verdana;fontSize=8;align=center;" parent="77e6c97f196da883-5" vertex="1">
          <mxGeometry x="40" y="180" width="100" height="60" as="geometry" />
        </mxCell>
        <mxCell id="xqhfm99gbNMzv0-Y3LiP-12" value="线路排序" style="rounded=1;whiteSpace=wrap;html=1;shadow=0;labelBackgroundColor=none;strokeWidth=1;fontFamily=Verdana;fontSize=8;align=center;" parent="77e6c97f196da883-5" vertex="1">
          <mxGeometry x="40" y="260" width="100" height="60" as="geometry" />
        </mxCell>
        <mxCell id="uz-vjrTtzpiiIkHIg5wc-14" value="搜索入口" style="rounded=1;whiteSpace=wrap;html=1;shadow=0;labelBackgroundColor=none;strokeWidth=1;fontFamily=Verdana;fontSize=8;align=center;" parent="77e6c97f196da883-5" vertex="1">
          <mxGeometry x="40" y="70" width="100" height="60" as="geometry" />
        </mxCell>
        <mxCell id="77e6c97f196da883-6" value="线路大前端" style="swimlane;html=1;startSize=20;fillColor=#f8cecc;strokeColor=#b85450;" parent="77e6c97f196da883-1" vertex="1">
          <mxGeometry x="640" y="20" width="160" height="730" as="geometry" />
        </mxCell>
        <mxCell id="xqhfm99gbNMzv0-Y3LiP-14" value="PGC线路输出" style="rounded=1;whiteSpace=wrap;html=1;shadow=0;labelBackgroundColor=none;strokeWidth=1;fontFamily=Verdana;fontSize=8;align=center;" parent="77e6c97f196da883-6" vertex="1">
          <mxGeometry x="30" y="410" width="100" height="60" as="geometry" />
        </mxCell>
        <mxCell id="mpfO-ckbmW8xnLMsvUuP-1" value="页面埋点" style="rounded=1;whiteSpace=wrap;html=1;shadow=0;labelBackgroundColor=none;strokeWidth=1;fontFamily=Verdana;fontSize=8;align=center;" parent="77e6c97f196da883-6" vertex="1">
          <mxGeometry x="30" y="650" width="100" height="60" as="geometry" />
        </mxCell>
        <mxCell id="uz-vjrTtzpiiIkHIg5wc-9" style="edgeStyle=orthogonalEdgeStyle;rounded=0;orthogonalLoop=1;jettySize=auto;html=1;exitX=0.5;exitY=1;exitDx=0;exitDy=0;entryX=0.5;entryY=0;entryDx=0;entryDy=0;" parent="77e6c97f196da883-6" source="uz-vjrTtzpiiIkHIg5wc-5" target="xqhfm99gbNMzv0-Y3LiP-14" edge="1">
          <mxGeometry relative="1" as="geometry" />
        </mxCell>
        <mxCell id="uz-vjrTtzpiiIkHIg5wc-5" value="第三方接口&lt;div&gt;（多语言、业务）&lt;/div&gt;" style="whiteSpace=wrap;html=1;rounded=1;" parent="77e6c97f196da883-6" vertex="1">
          <mxGeometry x="20" y="320" width="120" height="60" as="geometry" />
        </mxCell>
        <mxCell id="uz-vjrTtzpiiIkHIg5wc-12" value="UGC线路优化" style="rounded=1;whiteSpace=wrap;html=1;shadow=0;labelBackgroundColor=none;strokeWidth=1;fontFamily=Verdana;fontSize=8;align=center;" parent="77e6c97f196da883-6" vertex="1">
          <mxGeometry x="30" y="500" width="100" height="60" as="geometry" />
        </mxCell>
        <mxCell id="uz-vjrTtzpiiIkHIg5wc-15" value="跳链服务" style="rounded=1;whiteSpace=wrap;html=1;shadow=0;labelBackgroundColor=none;strokeWidth=1;fontFamily=Verdana;fontSize=8;align=center;fillColor=#f8cecc;strokeColor=#b85450;" parent="77e6c97f196da883-6" vertex="1">
          <mxGeometry x="30" y="210" width="100" height="60" as="geometry" />
        </mxCell>
        <mxCell id="uz-vjrTtzpiiIkHIg5wc-17" value="AI导入" style="rounded=1;whiteSpace=wrap;html=1;shadow=0;labelBackgroundColor=none;strokeWidth=1;fontFamily=Verdana;fontSize=8;align=center;" parent="77e6c97f196da883-6" vertex="1">
          <mxGeometry x="30" y="570" width="100" height="60" as="geometry" />
        </mxCell>
        <mxCell id="77e6c97f196da883-7" value="流量入口" style="swimlane;html=1;startSize=20;" parent="77e6c97f196da883-1" vertex="1">
          <mxGeometry x="800" y="20" width="160" height="730" as="geometry" />
        </mxCell>
        <mxCell id="77e6c97f196da883-24" value="连玩目的地" style="rounded=1;whiteSpace=wrap;html=1;shadow=0;labelBackgroundColor=none;strokeWidth=1;fontFamily=Verdana;fontSize=8;align=center;" parent="77e6c97f196da883-7" vertex="1">
          <mxGeometry x="30" y="470" width="100" height="60" as="geometry" />
        </mxCell>
        <mxCell id="xqhfm99gbNMzv0-Y3LiP-21" value="攻略/景点页" style="rounded=1;whiteSpace=wrap;html=1;shadow=0;labelBackgroundColor=none;strokeWidth=1;fontFamily=Verdana;fontSize=8;align=center;" parent="77e6c97f196da883-7" vertex="1">
          <mxGeometry x="30" y="300" width="100" height="60" as="geometry" />
        </mxCell>
        <mxCell id="xqhfm99gbNMzv0-Y3LiP-22" value="线路列表页" style="rounded=1;whiteSpace=wrap;html=1;shadow=0;labelBackgroundColor=none;strokeWidth=1;fontFamily=Verdana;fontSize=8;align=center;" parent="77e6c97f196da883-7" vertex="1">
          <mxGeometry x="40" y="60" width="100" height="60" as="geometry" />
        </mxCell>
        <mxCell id="xqhfm99gbNMzv0-Y3LiP-23" value="线路详情页" style="rounded=1;whiteSpace=wrap;html=1;shadow=0;labelBackgroundColor=none;strokeWidth=1;fontFamily=Verdana;fontSize=8;align=center;" parent="77e6c97f196da883-7" vertex="1">
          <mxGeometry x="40" y="190" width="100" height="60" as="geometry" />
        </mxCell>
        <mxCell id="77e6c97f196da883-18" value="景点详情页" style="rounded=1;whiteSpace=wrap;html=1;shadow=0;labelBackgroundColor=none;strokeWidth=1;fontFamily=Verdana;fontSize=8;align=center;" parent="77e6c97f196da883-7" vertex="1">
          <mxGeometry x="30" y="380" width="100" height="60" as="geometry" />
        </mxCell>
        <mxCell id="77e6c97f196da883-21" value="问道" style="rounded=1;whiteSpace=wrap;html=1;shadow=0;labelBackgroundColor=none;strokeWidth=1;fontFamily=Verdana;fontSize=8;align=center;" parent="77e6c97f196da883-7" vertex="1">
          <mxGeometry x="30" y="560" width="100" height="60" as="geometry" />
        </mxCell>
        <mxCell id="xqhfm99gbNMzv0-Y3LiP-80" value="信息流（首页，行程）" style="rounded=1;whiteSpace=wrap;html=1;shadow=0;labelBackgroundColor=none;strokeWidth=1;fontFamily=Verdana;fontSize=8;align=center;" parent="77e6c97f196da883-7" vertex="1">
          <mxGeometry x="30" y="630" width="100" height="60" as="geometry" />
        </mxCell>
        <mxCell id="xqhfm99gbNMzv0-Y3LiP-2" style="edgeStyle=orthogonalEdgeStyle;rounded=1;orthogonalLoop=1;jettySize=auto;html=1;exitX=1;exitY=0.5;exitDx=0;exitDy=0;entryX=0;entryY=0.5;entryDx=0;entryDy=0;curved=0;" parent="77e6c97f196da883-1" source="xqhfm99gbNMzv0-Y3LiP-1" target="77e6c97f196da883-12" edge="1">
          <mxGeometry relative="1" as="geometry" />
        </mxCell>
        <mxCell id="xqhfm99gbNMzv0-Y3LiP-3" style="edgeStyle=orthogonalEdgeStyle;rounded=1;orthogonalLoop=1;jettySize=auto;html=1;exitX=1;exitY=0.5;exitDx=0;exitDy=0;entryX=0;entryY=0.5;entryDx=0;entryDy=0;curved=0;" parent="77e6c97f196da883-1" source="77e6c97f196da883-8" target="77e6c97f196da883-12" edge="1">
          <mxGeometry relative="1" as="geometry" />
        </mxCell>
        <mxCell id="xqhfm99gbNMzv0-Y3LiP-4" style="edgeStyle=orthogonalEdgeStyle;rounded=1;orthogonalLoop=1;jettySize=auto;html=1;exitX=0.5;exitY=1;exitDx=0;exitDy=0;entryX=0.5;entryY=0;entryDx=0;entryDy=0;curved=0;" parent="77e6c97f196da883-1" source="77e6c97f196da883-12" target="77e6c97f196da883-9" edge="1">
          <mxGeometry relative="1" as="geometry">
            <Array as="points">
              <mxPoint x="410" y="260" />
              <mxPoint x="60" y="260" />
            </Array>
          </mxGeometry>
        </mxCell>
        <mxCell id="xqhfm99gbNMzv0-Y3LiP-9" style="edgeStyle=orthogonalEdgeStyle;rounded=1;orthogonalLoop=1;jettySize=auto;html=1;exitX=1;exitY=0.5;exitDx=0;exitDy=0;entryX=0;entryY=0.5;entryDx=0;entryDy=0;curved=0;" parent="77e6c97f196da883-1" source="xqhfm99gbNMzv0-Y3LiP-5" target="77e6c97f196da883-12" edge="1">
          <mxGeometry relative="1" as="geometry" />
        </mxCell>
        <mxCell id="xqhfm99gbNMzv0-Y3LiP-10" style="edgeStyle=orthogonalEdgeStyle;rounded=1;orthogonalLoop=1;jettySize=auto;html=1;exitX=1;exitY=0.5;exitDx=0;exitDy=0;entryX=0;entryY=0.5;entryDx=0;entryDy=0;curved=0;" parent="77e6c97f196da883-1" source="77e6c97f196da883-9" target="77e6c97f196da883-11" edge="1">
          <mxGeometry relative="1" as="geometry">
            <Array as="points">
              <mxPoint x="290" y="400" />
              <mxPoint x="290" y="310" />
            </Array>
          </mxGeometry>
        </mxCell>
        <mxCell id="xqhfm99gbNMzv0-Y3LiP-17" style="edgeStyle=orthogonalEdgeStyle;rounded=1;orthogonalLoop=1;jettySize=auto;html=1;exitX=1;exitY=0.5;exitDx=0;exitDy=0;entryX=0;entryY=0.5;entryDx=0;entryDy=0;curved=0;" parent="77e6c97f196da883-1" source="xqhfm99gbNMzv0-Y3LiP-16" target="77e6c97f196da883-12" edge="1">
          <mxGeometry relative="1" as="geometry" />
        </mxCell>
        <mxCell id="xqhfm99gbNMzv0-Y3LiP-20" style="edgeStyle=orthogonalEdgeStyle;rounded=1;orthogonalLoop=1;jettySize=auto;html=1;exitX=1;exitY=0.5;exitDx=0;exitDy=0;entryX=0;entryY=0.5;entryDx=0;entryDy=0;curved=0;" parent="77e6c97f196da883-1" source="xqhfm99gbNMzv0-Y3LiP-15" target="xqhfm99gbNMzv0-Y3LiP-14" edge="1">
          <mxGeometry relative="1" as="geometry" />
        </mxCell>
        <mxCell id="xqhfm99gbNMzv0-Y3LiP-78" style="edgeStyle=orthogonalEdgeStyle;rounded=1;orthogonalLoop=1;jettySize=auto;html=1;exitX=1;exitY=0.5;exitDx=0;exitDy=0;entryX=0;entryY=0.5;entryDx=0;entryDy=0;curved=0;" parent="77e6c97f196da883-1" source="xqhfm99gbNMzv0-Y3LiP-14" target="xqhfm99gbNMzv0-Y3LiP-22" edge="1">
          <mxGeometry relative="1" as="geometry" />
        </mxCell>
        <mxCell id="xqhfm99gbNMzv0-Y3LiP-79" style="edgeStyle=orthogonalEdgeStyle;rounded=1;orthogonalLoop=1;jettySize=auto;html=1;exitX=1;exitY=0.5;exitDx=0;exitDy=0;entryX=0;entryY=0.5;entryDx=0;entryDy=0;curved=0;" parent="77e6c97f196da883-1" source="xqhfm99gbNMzv0-Y3LiP-14" target="xqhfm99gbNMzv0-Y3LiP-23" edge="1">
          <mxGeometry relative="1" as="geometry" />
        </mxCell>
        <mxCell id="mpfO-ckbmW8xnLMsvUuP-4" style="edgeStyle=orthogonalEdgeStyle;rounded=1;orthogonalLoop=1;jettySize=auto;html=1;exitX=1;exitY=0.5;exitDx=0;exitDy=0;entryX=0;entryY=0.5;entryDx=0;entryDy=0;curved=0;" parent="77e6c97f196da883-1" source="77e6c97f196da883-11" target="77e6c97f196da883-15" edge="1">
          <mxGeometry relative="1" as="geometry" />
        </mxCell>
        <mxCell id="mpfO-ckbmW8xnLMsvUuP-5" style="edgeStyle=orthogonalEdgeStyle;rounded=1;orthogonalLoop=1;jettySize=auto;html=1;exitX=0;exitY=0.5;exitDx=0;exitDy=0;entryX=1;entryY=0.5;entryDx=0;entryDy=0;curved=0;" parent="77e6c97f196da883-1" source="mpfO-ckbmW8xnLMsvUuP-1" target="mpfO-ckbmW8xnLMsvUuP-2" edge="1">
          <mxGeometry relative="1" as="geometry" />
        </mxCell>
        <mxCell id="uz-vjrTtzpiiIkHIg5wc-3" style="edgeStyle=orthogonalEdgeStyle;rounded=1;orthogonalLoop=1;jettySize=auto;html=1;exitX=0.5;exitY=1;exitDx=0;exitDy=0;entryX=0.5;entryY=0;entryDx=0;entryDy=0;curved=0;" parent="77e6c97f196da883-1" source="xqhfm99gbNMzv0-Y3LiP-12" target="mpfO-ckbmW8xnLMsvUuP-7" edge="1">
          <mxGeometry relative="1" as="geometry" />
        </mxCell>
        <mxCell id="uz-vjrTtzpiiIkHIg5wc-4" style="edgeStyle=orthogonalEdgeStyle;rounded=1;orthogonalLoop=1;jettySize=auto;html=1;exitX=1;exitY=0.5;exitDx=0;exitDy=0;entryX=0;entryY=0.5;entryDx=0;entryDy=0;curved=0;" parent="77e6c97f196da883-1" source="mpfO-ckbmW8xnLMsvUuP-7" target="xqhfm99gbNMzv0-Y3LiP-14" edge="1">
          <mxGeometry relative="1" as="geometry" />
        </mxCell>
        <mxCell id="uz-vjrTtzpiiIkHIg5wc-10" style="edgeStyle=orthogonalEdgeStyle;rounded=1;orthogonalLoop=1;jettySize=auto;html=1;exitX=1;exitY=0.5;exitDx=0;exitDy=0;entryX=0;entryY=0.5;entryDx=0;entryDy=0;curved=0;" parent="77e6c97f196da883-1" source="uz-vjrTtzpiiIkHIg5wc-7" target="xqhfm99gbNMzv0-Y3LiP-14" edge="1">
          <mxGeometry relative="1" as="geometry" />
        </mxCell>
        <mxCell id="uz-vjrTtzpiiIkHIg5wc-11" style="edgeStyle=orthogonalEdgeStyle;rounded=1;orthogonalLoop=1;jettySize=auto;html=1;exitX=1;exitY=0.5;exitDx=0;exitDy=0;entryX=0;entryY=0.5;entryDx=0;entryDy=0;curved=0;" parent="77e6c97f196da883-1" source="77e6c97f196da883-9" target="mpfO-ckbmW8xnLMsvUuP-2" edge="1">
          <mxGeometry relative="1" as="geometry" />
        </mxCell>
        <mxCell id="uz-vjrTtzpiiIkHIg5wc-13" style="edgeStyle=orthogonalEdgeStyle;rounded=1;orthogonalLoop=1;jettySize=auto;html=1;exitX=1;exitY=0.5;exitDx=0;exitDy=0;entryX=0;entryY=0.5;entryDx=0;entryDy=0;curved=0;" parent="77e6c97f196da883-1" source="uz-vjrTtzpiiIkHIg5wc-8" target="uz-vjrTtzpiiIkHIg5wc-12" edge="1">
          <mxGeometry relative="1" as="geometry" />
        </mxCell>
        <mxCell id="uz-vjrTtzpiiIkHIg5wc-16" style="edgeStyle=orthogonalEdgeStyle;rounded=1;orthogonalLoop=1;jettySize=auto;html=1;exitX=1;exitY=0.5;exitDx=0;exitDy=0;entryX=0;entryY=0.5;entryDx=0;entryDy=0;curved=0;" parent="77e6c97f196da883-1" source="77e6c97f196da883-11" target="uz-vjrTtzpiiIkHIg5wc-14" edge="1">
          <mxGeometry relative="1" as="geometry" />
        </mxCell>
        <mxCell id="ZE1E4kuSkLPZFv9dW-vC-1" style="edgeStyle=orthogonalEdgeStyle;rounded=1;orthogonalLoop=1;jettySize=auto;html=1;exitX=1;exitY=0.5;exitDx=0;exitDy=0;entryX=0.5;entryY=0;entryDx=0;entryDy=0;curved=0;" edge="1" parent="77e6c97f196da883-1" source="xqhfm99gbNMzv0-Y3LiP-6" target="77e6c97f196da883-12">
          <mxGeometry relative="1" as="geometry" />
        </mxCell>
      </root>
    </mxGraphModel>
  </diagram>
  <diagram id="_js0Lwde9yJt927ap3Ep" name="ugc架构体系图">
    <mxGraphModel dx="918" dy="489" grid="1" gridSize="10" guides="1" tooltips="1" connect="1" arrows="1" fold="1" page="1" pageScale="1" pageWidth="827" pageHeight="1169" math="0" shadow="0">
      <root>
        <mxCell id="0" />
        <mxCell id="1" parent="0" />
        <mxCell id="4oWkyKNjgnM24SRwnKpT-19" style="edgeStyle=orthogonalEdgeStyle;rounded=0;orthogonalLoop=1;jettySize=auto;html=1;exitX=0.5;exitY=1;exitDx=0;exitDy=0;dashed=1;" parent="1" source="4oWkyKNjgnM24SRwnKpT-2" target="4oWkyKNjgnM24SRwnKpT-5" edge="1">
          <mxGeometry relative="1" as="geometry" />
        </mxCell>
        <mxCell id="4oWkyKNjgnM24SRwnKpT-2" value="地图" style="shape=actor;whiteSpace=wrap;html=1;dashed=1;" parent="1" vertex="1">
          <mxGeometry x="150" y="50" width="40" height="60" as="geometry" />
        </mxCell>
        <mxCell id="4oWkyKNjgnM24SRwnKpT-20" style="edgeStyle=orthogonalEdgeStyle;rounded=0;orthogonalLoop=1;jettySize=auto;html=1;exitX=0.5;exitY=1;exitDx=0;exitDy=0;" parent="1" source="4oWkyKNjgnM24SRwnKpT-3" target="4oWkyKNjgnM24SRwnKpT-6" edge="1">
          <mxGeometry relative="1" as="geometry" />
        </mxCell>
        <mxCell id="4oWkyKNjgnM24SRwnKpT-3" value="行程" style="shape=actor;whiteSpace=wrap;html=1;" parent="1" vertex="1">
          <mxGeometry x="240" y="50" width="40" height="60" as="geometry" />
        </mxCell>
        <mxCell id="4oWkyKNjgnM24SRwnKpT-21" style="edgeStyle=orthogonalEdgeStyle;rounded=0;orthogonalLoop=1;jettySize=auto;html=1;exitX=0.5;exitY=1;exitDx=0;exitDy=0;entryX=0.5;entryY=0;entryDx=0;entryDy=0;" parent="1" source="4oWkyKNjgnM24SRwnKpT-4" target="4oWkyKNjgnM24SRwnKpT-6" edge="1">
          <mxGeometry relative="1" as="geometry" />
        </mxCell>
        <mxCell id="4oWkyKNjgnM24SRwnKpT-4" value="My Trips" style="shape=actor;whiteSpace=wrap;html=1;" parent="1" vertex="1">
          <mxGeometry x="324" y="50" width="40" height="60" as="geometry" />
        </mxCell>
        <mxCell id="4oWkyKNjgnM24SRwnKpT-26" style="edgeStyle=orthogonalEdgeStyle;rounded=0;orthogonalLoop=1;jettySize=auto;html=1;exitX=1;exitY=0.5;exitDx=0;exitDy=0;entryX=0;entryY=0.25;entryDx=0;entryDy=0;" parent="1" source="4oWkyKNjgnM24SRwnKpT-5" target="4oWkyKNjgnM24SRwnKpT-6" edge="1">
          <mxGeometry relative="1" as="geometry" />
        </mxCell>
        <mxCell id="4oWkyKNjgnM24SRwnKpT-5" value="100026003" style="rounded=1;whiteSpace=wrap;html=1;fillColor=#dae8fc;strokeColor=#6c8ebf;dashed=1;" parent="1" vertex="1">
          <mxGeometry x="130" y="150" width="120" height="60" as="geometry" />
        </mxCell>
        <mxCell id="4oWkyKNjgnM24SRwnKpT-27" style="edgeStyle=orthogonalEdgeStyle;rounded=0;orthogonalLoop=1;jettySize=auto;html=1;exitX=0.5;exitY=1;exitDx=0;exitDy=0;" parent="1" source="4oWkyKNjgnM24SRwnKpT-6" target="4oWkyKNjgnM24SRwnKpT-11" edge="1">
          <mxGeometry relative="1" as="geometry" />
        </mxCell>
        <mxCell id="4oWkyKNjgnM24SRwnKpT-6" value="100018579" style="rounded=1;whiteSpace=wrap;html=1;fillColor=#dae8fc;strokeColor=#6c8ebf;" parent="1" vertex="1">
          <mxGeometry x="284" y="165" width="120" height="60" as="geometry" />
        </mxCell>
        <mxCell id="4oWkyKNjgnM24SRwnKpT-25" style="edgeStyle=orthogonalEdgeStyle;rounded=0;orthogonalLoop=1;jettySize=auto;html=1;exitX=0;exitY=0.5;exitDx=0;exitDy=0;entryX=1;entryY=0.25;entryDx=0;entryDy=0;" parent="1" source="4oWkyKNjgnM24SRwnKpT-8" target="4oWkyKNjgnM24SRwnKpT-6" edge="1">
          <mxGeometry relative="1" as="geometry" />
        </mxCell>
        <mxCell id="4oWkyKNjgnM24SRwnKpT-8" value="100052702" style="rounded=1;whiteSpace=wrap;html=1;fillColor=#dae8fc;strokeColor=#6c8ebf;" parent="1" vertex="1">
          <mxGeometry x="430" y="150" width="120" height="60" as="geometry" />
        </mxCell>
        <mxCell id="4oWkyKNjgnM24SRwnKpT-22" style="edgeStyle=orthogonalEdgeStyle;rounded=0;orthogonalLoop=1;jettySize=auto;html=1;exitX=0.5;exitY=1;exitDx=0;exitDy=0;entryX=0.5;entryY=0;entryDx=0;entryDy=0;" parent="1" source="4oWkyKNjgnM24SRwnKpT-9" target="4oWkyKNjgnM24SRwnKpT-8" edge="1">
          <mxGeometry relative="1" as="geometry" />
        </mxCell>
        <mxCell id="4oWkyKNjgnM24SRwnKpT-9" value="线路详情融合页" style="shape=actor;whiteSpace=wrap;html=1;fillColor=#ffe6cc;strokeColor=#d79b00;" parent="1" vertex="1">
          <mxGeometry x="470" y="50" width="40" height="60" as="geometry" />
        </mxCell>
        <mxCell id="4oWkyKNjgnM24SRwnKpT-15" value="" style="edgeStyle=orthogonalEdgeStyle;rounded=0;orthogonalLoop=1;jettySize=auto;html=1;" parent="1" source="4oWkyKNjgnM24SRwnKpT-10" target="4oWkyKNjgnM24SRwnKpT-14" edge="1">
          <mxGeometry relative="1" as="geometry" />
        </mxCell>
        <mxCell id="4oWkyKNjgnM24SRwnKpT-10" value="hive" style="rounded=1;whiteSpace=wrap;html=1;" parent="1" vertex="1">
          <mxGeometry x="540" y="360" width="120" height="60" as="geometry" />
        </mxCell>
        <mxCell id="4oWkyKNjgnM24SRwnKpT-11" value="100018562" style="rounded=1;whiteSpace=wrap;html=1;fillColor=#dae8fc;strokeColor=#6c8ebf;" parent="1" vertex="1">
          <mxGeometry x="284" y="260" width="120" height="60" as="geometry" />
        </mxCell>
        <mxCell id="4oWkyKNjgnM24SRwnKpT-23" style="edgeStyle=orthogonalEdgeStyle;rounded=0;orthogonalLoop=1;jettySize=auto;html=1;entryX=0.5;entryY=0;entryDx=0;entryDy=0;" parent="1" source="4oWkyKNjgnM24SRwnKpT-12" target="4oWkyKNjgnM24SRwnKpT-6" edge="1">
          <mxGeometry relative="1" as="geometry" />
        </mxCell>
        <mxCell id="4oWkyKNjgnM24SRwnKpT-12" value="笔记等其他入口" style="shape=actor;whiteSpace=wrap;html=1;" parent="1" vertex="1">
          <mxGeometry x="404" y="50" width="40" height="60" as="geometry" />
        </mxCell>
        <mxCell id="4oWkyKNjgnM24SRwnKpT-18" style="edgeStyle=orthogonalEdgeStyle;rounded=0;orthogonalLoop=1;jettySize=auto;html=1;exitX=1;exitY=0.5;exitDx=0;exitDy=0;exitPerimeter=0;entryX=0;entryY=0.5;entryDx=0;entryDy=0;" parent="1" source="4oWkyKNjgnM24SRwnKpT-13" target="4oWkyKNjgnM24SRwnKpT-10" edge="1">
          <mxGeometry relative="1" as="geometry" />
        </mxCell>
        <mxCell id="4oWkyKNjgnM24SRwnKpT-13" value="gstripscheduledb" style="strokeWidth=2;html=1;shape=mxgraph.flowchart.database;whiteSpace=wrap;fillColor=#dae8fc;strokeColor=#6c8ebf;" parent="1" vertex="1">
          <mxGeometry x="296" y="380" width="96" height="60" as="geometry" />
        </mxCell>
        <mxCell id="4oWkyKNjgnM24SRwnKpT-14" value="回补算法" style="shape=step;perimeter=stepPerimeter;whiteSpace=wrap;html=1;fixedSize=1;rounded=1;" parent="1" vertex="1">
          <mxGeometry x="700" y="290" width="120" height="80" as="geometry" />
        </mxCell>
        <mxCell id="4oWkyKNjgnM24SRwnKpT-16" value="离线分析" style="shape=step;perimeter=stepPerimeter;whiteSpace=wrap;html=1;fixedSize=1;" parent="1" vertex="1">
          <mxGeometry x="700" y="400" width="120" height="80" as="geometry" />
        </mxCell>
        <mxCell id="4oWkyKNjgnM24SRwnKpT-17" style="edgeStyle=orthogonalEdgeStyle;rounded=0;orthogonalLoop=1;jettySize=auto;html=1;entryX=0.106;entryY=0.583;entryDx=0;entryDy=0;entryPerimeter=0;" parent="1" source="4oWkyKNjgnM24SRwnKpT-10" target="4oWkyKNjgnM24SRwnKpT-16" edge="1">
          <mxGeometry relative="1" as="geometry" />
        </mxCell>
        <mxCell id="4oWkyKNjgnM24SRwnKpT-28" style="edgeStyle=orthogonalEdgeStyle;rounded=0;orthogonalLoop=1;jettySize=auto;html=1;entryX=0.5;entryY=0;entryDx=0;entryDy=0;entryPerimeter=0;" parent="1" source="4oWkyKNjgnM24SRwnKpT-11" target="4oWkyKNjgnM24SRwnKpT-13" edge="1">
          <mxGeometry relative="1" as="geometry" />
        </mxCell>
        <mxCell id="eCaT4QuKcjd7hBBZV822-2" style="edgeStyle=orthogonalEdgeStyle;rounded=0;orthogonalLoop=1;jettySize=auto;html=1;exitX=0.5;exitY=1;exitDx=0;exitDy=0;entryX=0.5;entryY=0;entryDx=0;entryDy=0;" parent="1" source="eCaT4QuKcjd7hBBZV822-1" target="4oWkyKNjgnM24SRwnKpT-8" edge="1">
          <mxGeometry relative="1" as="geometry" />
        </mxCell>
        <mxCell id="eCaT4QuKcjd7hBBZV822-1" value="UGC线路列表页" style="shape=actor;whiteSpace=wrap;html=1;fillColor=#ffe6cc;strokeColor=#d79b00;" parent="1" vertex="1">
          <mxGeometry x="530" y="50" width="40" height="60" as="geometry" />
        </mxCell>
        <mxCell id="bgDmNQUfu3COQNFX-c6G-1" value="上云" style="rounded=1;whiteSpace=wrap;html=1;fillColor=#dae8fc;strokeColor=#6c8ebf;" parent="1" vertex="1">
          <mxGeometry x="100" y="360" width="120" height="60" as="geometry" />
        </mxCell>
      </root>
    </mxGraphModel>
  </diagram>
  <diagram id="a5LH5olWLiOeYg6uc36s" name="线路架构图">
    <mxGraphModel dx="2901" dy="1118" grid="1" gridSize="10" guides="1" tooltips="1" connect="1" arrows="1" fold="1" page="1" pageScale="1" pageWidth="827" pageHeight="1169" math="0" shadow="0">
      <root>
        <mxCell id="0" />
        <mxCell id="1" parent="0" />
        <mxCell id="Sn0s3KAXzCKQpu4OWGDI-1" value="线路列表中台" style="rounded=1;whiteSpace=wrap;html=1;fillColor=#fff2cc;strokeColor=#d6b656;" parent="1" vertex="1">
          <mxGeometry x="118" y="530" width="120" height="60" as="geometry" />
        </mxCell>
        <mxCell id="Sn0s3KAXzCKQpu4OWGDI-2" value="hive数仓" style="whiteSpace=wrap;html=1;rounded=1;" parent="1" vertex="1">
          <mxGeometry x="238" y="900" width="120" height="60" as="geometry" />
        </mxCell>
        <mxCell id="Sn0s3KAXzCKQpu4OWGDI-5" value="线路详情中台" style="rounded=1;whiteSpace=wrap;html=1;fillColor=#fff2cc;strokeColor=#d6b656;" parent="1" vertex="1">
          <mxGeometry x="118" y="600" width="120" height="60" as="geometry" />
        </mxCell>
        <mxCell id="Sn0s3KAXzCKQpu4OWGDI-6" value="搜索接口" style="rounded=1;whiteSpace=wrap;html=1;fillColor=#d5e8d4;strokeColor=#82b366;" parent="1" vertex="1">
          <mxGeometry x="546" y="600" width="120" height="60" as="geometry" />
        </mxCell>
        <mxCell id="Sn0s3KAXzCKQpu4OWGDI-7" value="列表页" style="rounded=1;whiteSpace=wrap;html=1;" parent="1" vertex="1">
          <mxGeometry x="159" y="130" width="120" height="60" as="geometry" />
        </mxCell>
        <mxCell id="Sn0s3KAXzCKQpu4OWGDI-8" value="详情页" style="rounded=1;whiteSpace=wrap;html=1;" parent="1" vertex="1">
          <mxGeometry x="305" y="130" width="120" height="60" as="geometry" />
        </mxCell>
        <mxCell id="Sn0s3KAXzCKQpu4OWGDI-9" value="爬虫" style="rounded=1;whiteSpace=wrap;html=1;" parent="1" vertex="1">
          <mxGeometry x="578" y="795" width="120" height="60" as="geometry" />
        </mxCell>
        <mxCell id="Sn0s3KAXzCKQpu4OWGDI-10" value="酒店中台接口" style="rounded=1;whiteSpace=wrap;html=1;fillColor=#d5e8d4;strokeColor=#82b366;" parent="1" vertex="1">
          <mxGeometry x="406" y="530" width="120" height="60" as="geometry" />
        </mxCell>
        <mxCell id="Sn0s3KAXzCKQpu4OWGDI-11" value="大模型" style="rounded=1;whiteSpace=wrap;html=1;" parent="1" vertex="1">
          <mxGeometry x="428" y="795" width="120" height="60" as="geometry" />
        </mxCell>
        <mxCell id="Sn0s3KAXzCKQpu4OWGDI-12" value="Redis" style="rounded=1;whiteSpace=wrap;html=1;" parent="1" vertex="1">
          <mxGeometry x="278" y="795" width="120" height="60" as="geometry" />
        </mxCell>
        <mxCell id="Sn0s3KAXzCKQpu4OWGDI-13" value="景点中台接口" style="rounded=1;whiteSpace=wrap;html=1;fillColor=#d5e8d4;strokeColor=#82b366;" parent="1" vertex="1">
          <mxGeometry x="406" y="670" width="120" height="60" as="geometry" />
        </mxCell>
        <mxCell id="Sn0s3KAXzCKQpu4OWGDI-14" value="AI导入接口" style="rounded=1;whiteSpace=wrap;html=1;fillColor=#f8cecc;strokeColor=#b85450;" parent="1" vertex="1">
          <mxGeometry x="696" y="600" width="120" height="60" as="geometry" />
        </mxCell>
        <mxCell id="Sn0s3KAXzCKQpu4OWGDI-15" value="ES" style="rounded=1;whiteSpace=wrap;html=1;" parent="1" vertex="1">
          <mxGeometry x="138" y="795" width="120" height="60" as="geometry" />
        </mxCell>
        <mxCell id="UbShcNc_E8yxY9r--JEu-1" value="首页" style="shape=actor;whiteSpace=wrap;html=1;" parent="1" vertex="1">
          <mxGeometry x="202" y="20" width="40" height="60" as="geometry" />
        </mxCell>
        <mxCell id="UbShcNc_E8yxY9r--JEu-2" value="行程" style="shape=actor;whiteSpace=wrap;html=1;" parent="1" vertex="1">
          <mxGeometry x="262" y="20" width="40" height="60" as="geometry" />
        </mxCell>
        <mxCell id="UbShcNc_E8yxY9r--JEu-3" value="攻略/景点" style="shape=actor;whiteSpace=wrap;html=1;" parent="1" vertex="1">
          <mxGeometry x="322" y="20" width="40" height="60" as="geometry" />
        </mxCell>
        <mxCell id="UbShcNc_E8yxY9r--JEu-4" value="连玩目的地" style="shape=actor;whiteSpace=wrap;html=1;" parent="1" vertex="1">
          <mxGeometry x="382" y="20" width="40" height="60" as="geometry" />
        </mxCell>
        <mxCell id="UbShcNc_E8yxY9r--JEu-5" value="信息流" style="shape=actor;whiteSpace=wrap;html=1;" parent="1" vertex="1">
          <mxGeometry x="452" y="20" width="40" height="60" as="geometry" />
        </mxCell>
        <mxCell id="x__0Z601p2cPh2DhG7w--1" value="问道" style="shape=actor;whiteSpace=wrap;html=1;" parent="1" vertex="1">
          <mxGeometry x="502" y="20" width="40" height="60" as="geometry" />
        </mxCell>
        <mxCell id="x__0Z601p2cPh2DhG7w--2" value="TG" style="shape=actor;whiteSpace=wrap;html=1;" parent="1" vertex="1">
          <mxGeometry x="562" y="20" width="40" height="60" as="geometry" />
        </mxCell>
        <mxCell id="x__0Z601p2cPh2DhG7w--3" value="分享" style="shape=actor;whiteSpace=wrap;html=1;" parent="1" vertex="1">
          <mxGeometry x="612" y="20" width="40" height="60" as="geometry" />
        </mxCell>
        <mxCell id="x__0Z601p2cPh2DhG7w--4" value="我的列表" style="rounded=1;whiteSpace=wrap;html=1;" parent="1" vertex="1">
          <mxGeometry x="453" y="130" width="120" height="60" as="geometry" />
        </mxCell>
        <mxCell id="x__0Z601p2cPh2DhG7w--5" value="大交通" style="rounded=1;whiteSpace=wrap;html=1;fillColor=#fff2cc;strokeColor=#d6b656;" parent="1" vertex="1">
          <mxGeometry x="258" y="530" width="120" height="60" as="geometry" />
        </mxCell>
        <mxCell id="x__0Z601p2cPh2DhG7w--6" value="智能优化" style="rounded=1;whiteSpace=wrap;html=1;fillColor=#fff2cc;strokeColor=#d6b656;" parent="1" vertex="1">
          <mxGeometry x="258" y="600" width="120" height="60" as="geometry" />
        </mxCell>
        <mxCell id="x__0Z601p2cPh2DhG7w--7" value="推荐住宿区" style="rounded=1;whiteSpace=wrap;html=1;fillColor=#fff2cc;strokeColor=#d6b656;" parent="1" vertex="1">
          <mxGeometry x="118" y="670" width="120" height="60" as="geometry" />
        </mxCell>
        <mxCell id="x__0Z601p2cPh2DhG7w--9" value="餐厅中台" style="rounded=1;whiteSpace=wrap;html=1;fillColor=#d5e8d4;strokeColor=#82b366;" parent="1" vertex="1">
          <mxGeometry x="406" y="600" width="120" height="60" as="geometry" />
        </mxCell>
        <mxCell id="x__0Z601p2cPh2DhG7w--10" value="地理多语言接口" style="rounded=1;whiteSpace=wrap;html=1;fillColor=#d5e8d4;strokeColor=#82b366;" parent="1" vertex="1">
          <mxGeometry x="548" y="530" width="120" height="60" as="geometry" />
        </mxCell>
        <mxCell id="x__0Z601p2cPh2DhG7w--11" value="DB" style="whiteSpace=wrap;html=1;rounded=1;" parent="1" vertex="1">
          <mxGeometry x="398" y="900" width="120" height="60" as="geometry" />
        </mxCell>
        <mxCell id="x__0Z601p2cPh2DhG7w--12" value="运营后台" style="rounded=1;whiteSpace=wrap;html=1;" parent="1" vertex="1">
          <mxGeometry x="597" y="130" width="120" height="60" as="geometry" />
        </mxCell>
        <mxCell id="x__0Z601p2cPh2DhG7w--14" value="入口" style="text;strokeColor=none;fillColor=none;html=1;fontSize=24;fontStyle=1;verticalAlign=middle;align=center;" parent="1" vertex="1">
          <mxGeometry x="-18" y="30" width="100" height="40" as="geometry" />
        </mxCell>
        <mxCell id="x__0Z601p2cPh2DhG7w--15" value="接入层" style="text;strokeColor=none;fillColor=none;html=1;fontSize=24;fontStyle=1;verticalAlign=middle;align=center;" parent="1" vertex="1">
          <mxGeometry x="-18" y="140" width="100" height="40" as="geometry" />
        </mxCell>
        <mxCell id="x__0Z601p2cPh2DhG7w--16" value="接口层" style="text;strokeColor=none;fillColor=none;html=1;fontSize=24;fontStyle=1;verticalAlign=middle;align=center;" parent="1" vertex="1">
          <mxGeometry x="-12" y="570" width="100" height="40" as="geometry" />
        </mxCell>
        <mxCell id="x__0Z601p2cPh2DhG7w--17" value="存储计算" style="text;strokeColor=none;fillColor=none;html=1;fontSize=24;fontStyle=1;verticalAlign=middle;align=center;" parent="1" vertex="1">
          <mxGeometry x="-12" y="815" width="100" height="40" as="geometry" />
        </mxCell>
        <mxCell id="Mn0cdrgLIeFKGajroKWg-1" value="" style="line;strokeWidth=1;fillColor=none;align=left;verticalAlign=middle;spacingTop=-1;spacingLeft=3;spacingRight=3;rotatable=0;labelPosition=right;points=[];portConstraint=eastwest;strokeColor=inherit;" parent="1" vertex="1">
          <mxGeometry x="82" y="100" width="728" height="8" as="geometry" />
        </mxCell>
        <mxCell id="Mn0cdrgLIeFKGajroKWg-2" value="" style="line;strokeWidth=1;fillColor=none;align=left;verticalAlign=middle;spacingTop=-1;spacingLeft=3;spacingRight=3;rotatable=0;labelPosition=right;points=[];portConstraint=eastwest;strokeColor=inherit;" parent="1" vertex="1">
          <mxGeometry x="80" y="210" width="728" height="8" as="geometry" />
        </mxCell>
        <mxCell id="Mn0cdrgLIeFKGajroKWg-3" value="" style="line;strokeWidth=1;fillColor=none;align=left;verticalAlign=middle;spacingTop=-1;spacingLeft=3;spacingRight=3;rotatable=0;labelPosition=right;points=[];portConstraint=eastwest;strokeColor=inherit;" parent="1" vertex="1">
          <mxGeometry x="74" y="760" width="728" height="8" as="geometry" />
        </mxCell>
        <mxCell id="Mn0cdrgLIeFKGajroKWg-4" value="" style="line;strokeWidth=1;fillColor=none;align=left;verticalAlign=middle;spacingTop=-1;spacingLeft=3;spacingRight=3;rotatable=0;labelPosition=right;points=[];portConstraint=eastwest;strokeColor=inherit;" parent="1" vertex="1">
          <mxGeometry x="74" y="970" width="728" height="8" as="geometry" />
        </mxCell>
        <mxCell id="lOpDoWz6NkLJRNpk2Yvw-1" value="UGC线路存储接口" style="rounded=1;whiteSpace=wrap;html=1;fillColor=#f8cecc;strokeColor=#b85450;" parent="1" vertex="1">
          <mxGeometry x="696" y="530" width="120" height="60" as="geometry" />
        </mxCell>
        <mxCell id="lOpDoWz6NkLJRNpk2Yvw-2" value="线路收藏" style="rounded=1;whiteSpace=wrap;html=1;fillColor=#d5e8d4;strokeColor=#82b366;" parent="1" vertex="1">
          <mxGeometry x="548" y="670" width="120" height="60" as="geometry" />
        </mxCell>
        <mxCell id="lOpDoWz6NkLJRNpk2Yvw-3" value="其他" style="shape=actor;whiteSpace=wrap;html=1;" parent="1" vertex="1">
          <mxGeometry x="660" y="20" width="40" height="60" as="geometry" />
        </mxCell>
        <mxCell id="lOpDoWz6NkLJRNpk2Yvw-4" value="线路点赞" style="rounded=1;whiteSpace=wrap;html=1;fillColor=#e1d5e7;strokeColor=#9673a6;" parent="1" vertex="1">
          <mxGeometry x="696" y="680" width="120" height="60" as="geometry" />
        </mxCell>
        <mxCell id="thvZYH9yFQUtrzAcgMmm-1" value="" style="line;strokeWidth=1;fillColor=none;align=left;verticalAlign=middle;spacingTop=-1;spacingLeft=3;spacingRight=3;rotatable=0;labelPosition=right;points=[];portConstraint=eastwest;strokeColor=inherit;" parent="1" vertex="1">
          <mxGeometry x="82" y="500" width="728" height="8" as="geometry" />
        </mxCell>
        <mxCell id="thvZYH9yFQUtrzAcgMmm-2" value="功能层" style="text;strokeColor=none;fillColor=none;html=1;fontSize=24;fontStyle=1;verticalAlign=middle;align=center;" parent="1" vertex="1">
          <mxGeometry x="-18" y="300" width="100" height="40" as="geometry" />
        </mxCell>
        <mxCell id="thvZYH9yFQUtrzAcgMmm-3" value="搜索线路" style="rounded=1;whiteSpace=wrap;html=1;" parent="1" vertex="1">
          <mxGeometry x="112" y="240" width="120" height="60" as="geometry" />
        </mxCell>
        <mxCell id="thvZYH9yFQUtrzAcgMmm-5" value="推荐路线" style="rounded=1;whiteSpace=wrap;html=1;" parent="1" vertex="1">
          <mxGeometry x="112" y="330" width="120" height="60" as="geometry" />
        </mxCell>
        <mxCell id="thvZYH9yFQUtrzAcgMmm-6" value="保存为UGC" style="rounded=1;whiteSpace=wrap;html=1;" parent="1" vertex="1">
          <mxGeometry x="243" y="330" width="120" height="60" as="geometry" />
        </mxCell>
        <mxCell id="thvZYH9yFQUtrzAcgMmm-7" value="AI导入" style="rounded=1;whiteSpace=wrap;html=1;fillColor=#fff2cc;strokeColor=#d6b656;" parent="1" vertex="1">
          <mxGeometry x="402" y="420" width="120" height="60" as="geometry" />
        </mxCell>
        <mxCell id="thvZYH9yFQUtrzAcgMmm-8" value="大小交通" style="rounded=1;whiteSpace=wrap;html=1;" parent="1" vertex="1">
          <mxGeometry x="243" y="240" width="120" height="60" as="geometry" />
        </mxCell>
        <mxCell id="thvZYH9yFQUtrzAcgMmm-9" value="线路详情" style="rounded=1;whiteSpace=wrap;html=1;" parent="1" vertex="1">
          <mxGeometry x="540" y="240" width="120" height="60" as="geometry" />
        </mxCell>
        <mxCell id="thvZYH9yFQUtrzAcgMmm-10" value="目的地搜索" style="rounded=1;whiteSpace=wrap;html=1;" parent="1" vertex="1">
          <mxGeometry x="398" y="240" width="120" height="60" as="geometry" />
        </mxCell>
        <mxCell id="thvZYH9yFQUtrzAcgMmm-11" value="AI线路" style="rounded=1;whiteSpace=wrap;html=1;fillColor=#fff2cc;strokeColor=#d6b656;" parent="1" vertex="1">
          <mxGeometry x="243" y="420" width="120" height="60" as="geometry" />
        </mxCell>
        <mxCell id="thvZYH9yFQUtrzAcgMmm-12" value="线路优化" style="rounded=1;whiteSpace=wrap;html=1;fillColor=#fff2cc;strokeColor=#d6b656;" parent="1" vertex="1">
          <mxGeometry x="112" y="420" width="120" height="60" as="geometry" />
        </mxCell>
        <mxCell id="thvZYH9yFQUtrzAcgMmm-13" value="UGC线路编辑" style="rounded=1;whiteSpace=wrap;html=1;" parent="1" vertex="1">
          <mxGeometry x="546" y="330" width="120" height="60" as="geometry" />
        </mxCell>
        <mxCell id="thvZYH9yFQUtrzAcgMmm-14" value="推荐酒店" style="rounded=1;whiteSpace=wrap;html=1;" parent="1" vertex="1">
          <mxGeometry x="398" y="330" width="120" height="60" as="geometry" />
        </mxCell>
        <mxCell id="thvZYH9yFQUtrzAcgMmm-15" value="推荐住宿区" style="rounded=1;whiteSpace=wrap;html=1;fillColor=#fff2cc;strokeColor=#d6b656;" parent="1" vertex="1">
          <mxGeometry x="540" y="420" width="120" height="60" as="geometry" />
        </mxCell>
        <mxCell id="thvZYH9yFQUtrzAcgMmm-17" value="分享" style="rounded=1;whiteSpace=wrap;html=1;" parent="1" vertex="1">
          <mxGeometry x="680" y="240" width="120" height="60" as="geometry" />
        </mxCell>
        <mxCell id="thvZYH9yFQUtrzAcgMmm-18" value="收藏" style="rounded=1;whiteSpace=wrap;html=1;" parent="1" vertex="1">
          <mxGeometry x="682" y="330" width="120" height="60" as="geometry" />
        </mxCell>
        <mxCell id="thvZYH9yFQUtrzAcgMmm-19" value="点赞" style="rounded=1;whiteSpace=wrap;html=1;" parent="1" vertex="1">
          <mxGeometry x="682" y="420" width="120" height="60" as="geometry" />
        </mxCell>
      </root>
    </mxGraphModel>
  </diagram>
</mxfile>
